<?xml version="1.0" standalone="no"?>
<!DOCTYPE svg PUBLIC "-//W3C//DTD SVG 20010904//EN"
 "http://www.w3.org/TR/2001/REC-SVG-20010904/DTD/svg10.dtd">
<svg version="1.0" xmlns="http://www.w3.org/2000/svg"
 width="700.000000pt" height="700.000000pt" viewBox="0 0 700.000000 700.000000"
 preserveAspectRatio="xMidYMid meet">
<metadata>
Created by potrace 1.11, written by Peter Selinger 2001-2013
</metadata>
<g transform="translate(0.000000,700.000000) scale(0.100000,-0.100000)"
fill="#000000" stroke="none">
<path d="M3397 6804 c-1 -1 -57 -5 -125 -8 -67 -4 -128 -9 -135 -11 -6 -2 -37
-6 -67 -10 -333 -36 -732 -158 -1063 -327 -358 -181 -724 -463 -977 -753 -29
-33 -65 -73 -79 -90 -58 -66 -179 -234 -254 -354 -166 -265 -343 -677 -403
-943 -2 -10 -6 -26 -8 -35 -24 -101 -53 -258 -61 -328 -3 -27 -7 -60 -10 -73
-22 -117 -23 -658 0 -742 2 -8 7 -40 10 -70 18 -163 76 -415 139 -603 205
-614 573 -1138 1086 -1549 330 -263 734 -470 1150 -588 61 -17 120 -33 132
-36 90 -20 273 -53 319 -58 31 -4 67 -9 79 -11 120 -23 568 -23 732 0 18 2 69
9 113 15 68 9 110 17 250 44 205 40 528 157 769 278 543 272 1023 721 1346
1258 75 124 191 363 248 510 35 90 113 339 127 405 24 113 54 282 59 330 4 33
9 67 11 75 23 88 22 659 0 740 -3 8 -7 40 -10 70 -8 83 -43 261 -76 390 -147
572 -437 1077 -864 1506 -345 346 -755 607 -1218 775 -89 33 -302 96 -348 104
-16 3 -57 12 -92 20 -34 8 -80 17 -102 20 -22 3 -65 10 -95 15 -58 10 -116 16
-230 26 -67 5 -348 12 -353 8z m-93 -3297 c-1 -1596 -2 -2905 -3 -2910 -1 -10
-129 1 -266 24 -764 125 -1438 541 -1897 1169 -309 424 -506 959 -545 1480
-12 161 -6 482 11 580 2 14 7 47 11 73 4 27 8 59 11 70 2 12 9 49 14 82 6 33
15 74 20 90 5 17 11 41 14 55 24 126 111 360 206 555 146 300 316 540 540 765
146 147 196 191 333 293 325 242 667 404 1062 503 54 14 278 53 335 59 36 4
66 8 67 8 1 1 21 3 45 4 l43 3 -1 -2903z m586 2883 c64 -9 206 -34 245 -44 11
-2 40 -9 65 -15 229 -53 531 -175 770 -312 58 -33 241 -154 275 -181 11 -9 63
-51 115 -93 124 -101 325 -306 426 -436 276 -353 448 -709 554 -1149 26 -106
54 -281 65 -400 l6 -66 -1358 1 -1358 0 -1 1350 c0 743 1 1354 4 1358 4 8 73
3 192 -13z m2515 -3132 c-50 -666 -345 -1311 -820 -1793 -393 -400 -839 -657
-1379 -794 -66 -17 -140 -34 -165 -37 -25 -3 -48 -7 -51 -9 -3 -2 -30 -6 -60
-9 -30 -4 -66 -9 -80 -11 -14 -3 -54 -7 -90 -10 l-65 -6 0 1348 c0 741 3 1353
7 1358 4 7 456 10 1356 10 l1350 0 -3 -47z"/>
</g>
</svg>
