<?xml version="1.0" standalone="no"?>
<!DOCTYPE svg PUBLIC "-//W3C//DTD SVG 20010904//EN"
 "http://www.w3.org/TR/2001/REC-SVG-20010904/DTD/svg10.dtd">
<svg version="1.0" xmlns="http://www.w3.org/2000/svg"
 width="260.000000pt" height="260.000000pt" viewBox="0 0 260.000000 260.000000"
 preserveAspectRatio="xMidYMid meet">
<metadata>
Created by potrace 1.11, written by Peter Selinger 2001-2013
</metadata>
<g transform="translate(0.000000,260.000000) scale(0.100000,-0.100000)"
fill="#000000" stroke="none">
<path d="M1180 2526 c-3 -2 -49 -12 -102 -20 -361 -58 -710 -320 -874 -655
-44 -89 -69 -150 -78 -186 -4 -16 -10 -39 -13 -50 -41 -162 -50 -387 -20 -535
9 -47 18 -89 20 -95 2 -5 7 -25 11 -44 9 -38 34 -97 80 -192 140 -286 415
-520 731 -623 204 -67 526 -67 730 0 383 124 685 426 809 809 78 239 65 592
-31 815 -68 160 -144 277 -250 390 -178 190 -419 322 -666 367 -89 16 -337 30
-347 19z m50 -1227 l0 -1082 -62 7 c-63 8 -167 30 -203 45 -11 5 -47 19 -80
31 -182 70 -371 226 -489 405 -56 84 -116 208 -116 237 0 8 -4 18 -9 24 -4 5
-17 43 -27 84 -27 107 -27 393 0 500 10 41 23 79 27 84 5 6 9 16 9 24 0 7 9
34 20 60 113 264 318 469 582 582 26 11 53 20 60 20 8 0 18 4 24 9 5 4 43 16
84 25 110 23 112 24 148 25 l32 1 0 -1081z m1145 -136 c-4 -38 -11 -75 -15
-83 -4 -8 -11 -36 -15 -63 -4 -26 -11 -50 -16 -53 -5 -3 -9 -12 -9 -20 0 -29
-65 -162 -116 -239 -123 -185 -273 -309 -486 -404 -26 -12 -54 -21 -62 -21 -8
0 -17 -4 -20 -9 -3 -5 -27 -12 -53 -16 -27 -4 -55 -11 -63 -15 -8 -4 -45 -11
-82 -15 l-67 -7 -1 499 c0 275 3 502 7 506 3 4 231 7 506 7 l499 0 -7 -67z"/>
</g>
</svg>
