<?xml version="1.0" standalone="no"?>
<!DOCTYPE svg PUBLIC "-//W3C//DTD SVG 20010904//EN"
 "http://www.w3.org/TR/2001/REC-SVG-20010904/DTD/svg10.dtd">
<svg version="1.0" xmlns="http://www.w3.org/2000/svg"
 width="700.000000pt" height="700.000000pt" viewBox="0 0 700.000000 700.000000"
 preserveAspectRatio="xMidYMid meet">
<metadata>
Created by potrace 1.11, written by Peter Selinger 2001-2013
</metadata>
<g transform="translate(0.000000,700.000000) scale(0.100000,-0.100000)"
fill="#000000" stroke="none">
<path d="M3335 6800 c-830 -44 -1585 -379 -2171 -964 -840 -841 -1161 -2047
-853 -3205 298 -1115 1205 -2022 2320 -2320 875 -233 1802 -106 2564 352 533
320 980 799 1253 1343 216 430 327 855 351 1336 46 936 -300 1830 -963 2494
-466 466 -1041 774 -1684 904 -187 37 -299 49 -607 64 -38 2 -133 0 -210 -4z
m-25 -3301 l0 -2911 -67 6 c-390 40 -734 139 -1063 307 -1118 569 -1747 1785
-1565 3025 100 681 451 1324 964 1767 438 378 953 616 1496 691 147 21 164 23
203 25 l32 1 0 -2911z m620 2885 c693 -99 1356 -471 1806 -1014 387 -466 608
-998 670 -1613 l6 -67 -1358 2 -1359 3 -3 1359 -2 1358 67 -6 c38 -4 115 -14
173 -22z m2476 -3141 c-78 -768 -426 -1454 -985 -1936 -482 -416 -1025 -648
-1663 -713 l-68 -6 0 1354 c0 745 3 1358 7 1361 3 4 616 7 1361 7 l1354 0 -6
-67z"/>
</g>
</svg>
